<svg width="147" height="45" viewBox="0 0 147 45" fill="none" xmlns="http://www.w3.org/2000/svg">
<g clip-path="url(#clip0_2_1161)">
<path d="M8.00563 31.1567H4.01794L8.29491 11.0278H12.2826L8.00563 31.1567Z" fill="white"/>
<path d="M12.8217 31.1567L16.0491 15.9703H19.7206L19.2514 18.2007L19.5138 18.2695C20.0831 17.4161 20.7609 16.7717 21.5471 16.3362C22.3342 15.8998 23.2845 15.6816 24.3979 15.6816C25.7959 15.6816 26.8605 16.0605 27.5917 16.8178C28.3225 17.5743 28.6883 18.6228 28.6883 19.9628C28.6883 20.5326 28.6193 21.1569 28.4814 21.8357L26.4952 31.1567H22.6723L24.6737 21.7535C24.7376 21.4682 24.7696 21.1791 24.7696 20.8859C24.7696 20.2527 24.5854 19.764 24.2179 19.4191C23.85 19.0746 23.3072 18.9022 22.5899 18.9022C21.5324 18.9022 20.6356 19.2559 19.8989 19.9628C19.1631 20.6702 18.6346 21.7804 18.3129 23.2941L16.6428 31.1567H12.8217Z" fill="white"/>
<path d="M35.2436 37.601C33.909 37.601 32.7334 37.4517 31.7167 37.1529C30.7009 36.8542 29.9129 36.4179 29.352 35.8439C28.7903 35.2708 28.5094 34.5852 28.5094 33.7864C28.5094 33.538 28.5372 33.2812 28.5918 33.0161C28.7297 32.3725 29.1048 31.8077 29.717 31.321C30.3279 30.8356 31.1255 30.5419 32.1103 30.44L32.1658 30.1513C31.8437 29.8941 31.6023 29.6168 31.4409 29.3189C31.2803 29.0202 31.2004 28.6736 31.2004 28.2784C31.2004 28.0493 31.2277 27.8064 31.2828 27.55C31.5124 26.4113 32.4643 25.667 34.1386 25.318L34.1941 25.0293C33.6601 24.6626 33.2531 24.2221 32.973 23.7085C32.6926 23.1942 32.5526 22.5699 32.5526 21.8356C32.5526 21.3859 32.6072 20.895 32.7174 20.3621C32.9012 19.4907 33.2918 18.699 33.8897 17.9874C34.4884 17.2758 35.2612 16.7136 36.2089 16.3008C37.1563 15.8879 38.223 15.6815 39.4095 15.6815C40.6785 15.6815 41.6994 15.9383 42.4722 16.4518C43.1168 15.773 43.591 14.9511 43.895 13.9865L44.2247 13.8086L46.8198 14.4832C46.5797 15.3001 46.2345 15.966 45.7838 16.4804C45.333 16.9939 44.7166 17.3744 43.9354 17.6216L43.8664 17.9253C44.3361 18.4481 44.5711 19.1269 44.5711 19.9627C44.5711 20.4125 44.511 20.9222 44.3912 21.4916C44.2163 22.3265 43.8551 23.0838 43.3081 23.7639C42.7606 24.4432 41.9971 24.9869 41.0174 25.3952C40.0373 25.8038 38.8579 26.0077 37.4787 26.0077L36.8985 25.9926C36.5487 25.975 36.2956 25.9658 36.14 25.9658C35.7902 25.9658 35.495 26.0598 35.2553 26.2477C35.0165 26.4357 34.8651 26.6769 34.8012 26.971C34.7831 27.0629 34.7743 27.1317 34.7743 27.1775C34.7743 27.4351 34.887 27.639 35.1124 27.79C35.3377 27.9411 35.6661 28.0262 36.0979 28.0451L39.0647 28.1693C42.1278 28.2981 43.6596 29.459 43.6596 31.6517C43.6596 32.0465 43.6133 32.4597 43.5217 32.8919C43.3375 33.7545 42.9397 34.5365 42.3275 35.2381C41.7162 35.9404 40.8223 36.5102 39.645 36.9465C38.4677 37.3828 37.0003 37.601 35.2436 37.601ZM38.0573 23.336C38.794 23.336 39.415 23.1186 39.9208 22.6831C40.4262 22.2468 40.7668 21.6154 40.9417 20.7884C40.9964 20.5501 41.0241 20.3252 41.0241 20.1137C41.0241 19.5633 40.8559 19.1345 40.5195 18.8265C40.184 18.519 39.7131 18.365 39.1068 18.365C38.3521 18.365 37.7285 18.5811 37.2366 19.0128C36.7442 19.445 36.4108 20.0735 36.2359 20.8992C36.1808 21.1467 36.1534 21.3804 36.1534 21.6007C36.1534 22.1524 36.3166 22.5799 36.6429 22.8828C36.97 23.1849 37.4417 23.336 38.0573 23.336ZM35.5597 34.8319C36.4061 34.8319 37.126 34.7446 37.7193 34.5701C38.3121 34.3964 38.7721 34.1673 39.0984 33.882C39.4255 33.5976 39.6256 33.2863 39.6988 32.9473C39.7358 32.7996 39.7543 32.6523 39.7543 32.5059C39.7543 32.1388 39.6067 31.8702 39.312 31.7003C39.0181 31.53 38.5307 31.4268 37.8504 31.3898L35.146 31.2522C34.8878 31.2342 34.7087 31.2254 34.6078 31.2254C33.9271 31.2254 33.3683 31.3924 32.931 31.7272C32.4946 32.0628 32.2768 32.5101 32.2768 33.0698C32.2768 33.6303 32.5686 34.0637 33.153 34.3704C33.737 34.6779 34.5393 34.8319 35.5597 34.8319Z" fill="white"/>
<path d="M53.4699 31.4454C52.1816 31.4454 51.059 31.2091 50.1028 30.7371C49.1463 30.2639 48.4079 29.5733 47.8878 28.6645C47.3686 27.7562 47.1091 26.659 47.1091 25.3735C47.1091 24.6216 47.1966 23.8371 47.3715 23.0189C47.702 21.4951 48.2536 20.1827 49.0264 19.0818C49.7988 17.9808 50.776 17.1392 51.9579 16.556C53.1407 15.9732 54.4912 15.6816 56.0095 15.6816C57.2966 15.6816 58.4184 15.925 59.3749 16.4117C60.3323 16.8975 61.0707 17.6015 61.5899 18.5246C62.11 19.4468 62.3703 20.546 62.3703 21.8223C62.3703 22.5284 62.2871 23.2899 62.1214 24.1064C61.7905 25.6303 61.2359 26.9435 60.458 28.0452C59.681 29.1462 58.7013 29.9882 57.5198 30.571C56.3379 31.1542 54.9878 31.4454 53.4699 31.4454ZM53.8282 28.2097C54.9415 28.2097 55.88 27.822 56.6436 27.0467C57.4071 26.2713 57.9542 25.1129 58.2851 23.5711C58.423 22.9191 58.4919 22.3493 58.4919 21.8626C58.4919 20.8624 58.2434 20.1218 57.7469 19.6406C57.2499 19.1585 56.5511 18.9173 55.6496 18.9173C54.5371 18.9173 53.5994 19.305 52.8359 20.0803C52.0723 20.8557 51.5244 22.0195 51.1927 23.5711C51.0548 24.2046 50.9858 24.7689 50.9858 25.2644C50.9858 26.2646 51.2364 27.006 51.7376 27.4881C52.2396 27.9693 52.9368 28.2097 53.8282 28.2097Z" fill="white"/>
<path d="M68.9929 31.4453C68.1284 31.4453 67.3943 31.264 66.7913 30.9015C66.1892 30.539 65.7338 30.0322 65.4256 29.381C65.117 28.729 64.9631 27.9759 64.9631 27.1221C64.9631 26.5897 65.0275 26.0111 65.1565 25.3868L67.158 15.9702H70.9791L68.9508 25.553C68.8957 25.8282 68.8684 26.085 68.8684 26.3233C68.8684 26.9207 69.0433 27.3873 69.3931 27.7229C69.743 28.0577 70.2534 28.2247 70.9253 28.2247C73.0958 28.2247 74.4892 26.7882 75.1047 23.915L76.7883 15.9702H80.6111L77.382 31.1566H73.7122L74.1814 28.9262L73.919 28.8574C73.311 29.7393 72.6278 30.3909 71.8688 30.8126C71.1107 31.2342 70.1521 31.4453 68.9929 31.4453Z" fill="white"/>
<path d="M87.4401 31.4451C86.4747 31.4451 85.6102 31.2408 84.8467 30.8325C84.0831 30.4243 83.478 29.7954 83.0319 28.9462C82.5854 28.097 82.3625 27.0347 82.3625 25.7592C82.3625 24.9146 82.4727 23.9694 82.6939 22.923C83.1993 20.5634 84.1167 18.7668 85.4454 17.5325C86.7749 16.2986 88.4568 15.6814 90.491 15.6814C91.4194 15.6814 92.2052 15.8672 92.8489 16.2386C93.4935 16.6103 93.9951 17.131 94.3542 17.801L94.6569 17.7322L96.3405 9.86963H100.163L95.6223 31.1564H91.8011L92.2014 29.3255L91.9256 29.2701C91.3739 29.9863 90.7571 30.5279 90.0755 30.8946C89.3948 31.2613 88.5165 31.4451 87.4401 31.4451ZM89.0008 28.2094C90.076 28.2094 90.9955 27.8545 91.7591 27.1438C92.5227 26.4322 93.0651 25.3329 93.3871 23.846C93.525 23.1848 93.594 22.602 93.594 22.0973C93.594 21.0324 93.3409 20.2361 92.8355 19.7092C92.3297 19.1813 91.6809 18.917 90.8896 18.917C89.7951 18.917 88.873 19.2892 88.1229 20.0331C87.3736 20.7761 86.8472 21.8632 86.5436 23.2939C86.3965 23.9744 86.3233 24.5941 86.3233 25.1534C86.3233 26.1998 86.5642 26.9705 87.0465 27.466C87.5296 27.9619 88.1809 28.2094 89.0008 28.2094Z" fill="white"/>
<path d="M114.913 20.5553C114.563 22.2436 113.643 23.4553 112.153 24.1903C110.663 24.9246 108.841 25.2912 106.688 25.2912C105.925 25.2912 105.217 25.2594 104.564 25.1956C104.601 26.205 104.868 26.9594 105.365 27.4595C105.861 27.9597 106.561 28.2097 107.462 28.2097C108.298 28.2097 108.993 28.0448 109.544 27.7146C110.097 27.3849 110.603 26.8801 111.063 26.2009H111.352L113.809 27.8657C113.339 28.6188 112.815 29.2527 112.235 29.7671C111.657 30.2807 110.923 30.6893 110.035 30.9922C109.147 31.2943 108.06 31.4454 106.773 31.4454C105.604 31.4454 104.562 31.1953 103.646 30.6952C102.731 30.1951 102.013 29.4701 101.493 28.5202C100.974 27.5703 100.714 26.4341 100.714 25.1117C100.714 24.3598 100.802 23.566 100.977 22.7303C101.29 21.2614 101.867 19.9972 102.707 18.9374C103.549 17.8768 104.566 17.0691 105.757 16.514C106.948 15.9594 108.225 15.6816 109.586 15.6816C110.745 15.6816 111.732 15.8587 112.546 16.212C113.36 16.5644 113.974 17.0461 114.388 17.6569C114.802 18.267 115.009 18.9437 115.009 19.6876C115.009 19.9998 114.977 20.2893 114.913 20.5553ZM109.228 18.6404C108.639 18.6404 108.066 18.7738 107.509 19.0398C106.953 19.3062 106.45 19.7077 105.999 20.2448C105.548 20.7818 105.203 21.4498 104.965 22.2486C105.673 22.3036 106.344 22.3308 106.979 22.3308C108.229 22.3308 109.225 22.1748 109.965 21.8626C110.706 21.5504 111.159 21 111.325 20.2112C111.343 20.1004 111.352 20.0132 111.352 19.9494C111.352 19.5634 111.168 19.2492 110.801 19.0062C110.433 18.7625 109.908 18.6404 109.228 18.6404Z" fill="white"/>
<mask id="mask0_2_1161" style="mask-type:luminance" maskUnits="userSpaceOnUse" x="115" y="0" width="32" height="45">
<path d="M115.66 0.840332H146.014V44.1792H115.66V0.840332Z" fill="white"/>
</mask>
<g mask="url(#mask0_2_1161)">
<path fill-rule="evenodd" clip-rule="evenodd" d="M136.933 13.4607L135.936 12.4647L135.367 13.0336L134.797 13.6029L133.649 12.4554L132.501 13.6029L131.353 12.4554L132.501 11.3084L133.649 12.4554L134.797 11.3084L132.715 9.22734L131.567 10.3744L130.419 9.24496L128.132 11.5307L125.836 9.23615L126.984 8.08865L125.872 6.97724L123.674 9.1472L122.526 7.99971L120.23 10.2943L119.082 9.1472L117.934 10.2943L119.082 11.4418L117.934 12.5889L119.082 13.7364L120.23 12.5889L121.378 13.7364L122.526 12.5889L123.674 13.7364L124.821 12.5889L125.97 13.7364L124.821 14.8834L123.674 13.7364L122.526 14.8834L121.378 13.7364L120.23 14.8834L123.674 18.3255L124.821 17.178L125.97 18.3255L124.821 19.4726L125.996 20.6465L126.877 21.5272L127.874 22.5232L126.877 23.5192L125.996 24.3999L124.821 25.5738L125.97 26.7209L124.821 27.8684L123.674 26.7209L120.23 30.163L121.378 31.3101L120.23 32.4576L119.082 31.3101L117.934 32.4576L119.082 33.6046L117.934 34.7521L119.082 35.8992L120.23 34.7521L122.526 37.0467L121.378 38.1938L122.526 39.3413L123.674 38.1938L122.526 37.0467L123.674 35.8816L125.872 38.0515L126.984 36.9397L125.836 35.7926L128.132 33.4981L130.419 35.7838L131.567 34.6363L132.715 35.7838L134.797 33.7024L133.649 32.5553L132.501 33.7024L131.353 32.5553L132.501 31.4078L133.649 32.5553L134.797 31.4078L135.367 31.9772L135.936 32.5465L136.933 31.5505L145.992 22.5144L136.933 13.4607ZM129.413 27.8504L130.561 28.9979L129.413 30.1449L128.265 28.9979L129.413 27.8504ZM129.404 14.8834L130.552 16.0309L129.404 17.178L128.257 16.0309L129.404 14.8834ZM128.132 31.2035L129.28 32.3506L128.132 33.4981L126.984 32.3506L128.132 31.2035ZM128.132 11.5307L129.28 12.6778L128.132 13.8253L126.984 12.6778L128.132 11.5307ZM127.118 25.565L128.265 26.7121L127.118 27.8596L125.97 26.7121L127.118 25.565ZM127.118 17.1692L128.265 18.3167L127.118 19.4638L125.97 18.3167L127.118 17.1692ZM125.97 28.9979L124.821 30.1449L123.674 28.9979L124.821 27.8504L125.97 28.9979ZM125.97 16.0221L124.821 17.1692L123.674 16.0221L124.821 14.8746L125.97 16.0221ZM125.97 31.2924L124.821 32.4395L123.674 31.2924L122.526 32.4395L121.378 31.2924L122.526 30.1449L123.674 31.2924L124.821 30.1449L125.97 31.2924ZM125.97 33.587L123.674 35.8816L122.526 34.7341L124.821 32.4395L125.97 33.587ZM125.97 11.4418L124.821 12.5889L122.526 10.2943L123.674 9.1472L125.97 11.4418ZM120.239 32.4395L121.387 33.587L120.239 34.7341L119.091 33.587L120.239 32.4395ZM120.239 10.2943L121.387 11.4418L120.239 12.5889L119.091 11.4418L120.239 10.2943ZM130.419 35.7838L131.567 36.9309L130.419 38.0784L129.271 36.9309L128.123 38.0784L126.975 36.9309L128.123 35.7926L129.271 36.9397L130.419 35.7838ZM130.419 6.95039L131.567 8.09788L130.419 9.24496L129.271 8.09788L128.123 9.24496L126.975 8.09788L128.123 6.95039L129.271 8.09788L130.419 6.95039ZM128.123 38.0784L129.271 39.2255L128.123 40.373L126.975 39.2255L128.123 38.0784ZM128.123 4.65581L126.975 5.80331L128.123 6.95039L129.271 5.80331L128.123 4.65581ZM125.098 40.0973L124.27 40.9243L125.098 41.7512L125.925 40.9243L125.098 40.0973ZM125.098 3.27714L124.27 4.10451L125.098 4.93146L125.925 4.10451L125.098 3.27714ZM122.526 5.71436L123.674 6.86144L122.526 8.00894L121.378 6.86144L122.526 5.71436ZM123.033 43.1299L122.499 43.6548L123.024 44.1792L123.558 43.6455L123.033 43.1299ZM123.024 0.840332L122.499 1.3652L123.033 1.89007L123.558 1.37401L123.024 0.840332ZM122.855 40.4884L122.321 41.0132L122.846 41.5381L123.371 41.0044L122.855 40.4884ZM122.855 3.48188L122.33 4.00675L122.864 4.5312L123.389 4.00675L122.855 3.48188ZM120.194 39.2523L121.022 40.0793L120.194 40.9067L119.367 40.0793L120.194 39.2523ZM120.194 4.12213L119.367 4.9495L120.194 5.77646L121.022 4.9495L120.194 4.12213ZM119.812 42.8543L119.286 43.3879L119.812 43.9124L120.337 43.3879L119.812 42.8543ZM119.812 1.11598L119.286 1.64085L119.812 2.17453L120.346 1.64085L119.812 1.11598ZM119.091 35.8816L120.239 37.0287L119.091 38.1762L117.943 37.0287L119.091 35.8816ZM119.082 6.85263L120.23 7.99971L119.082 9.1472L117.934 7.99971L119.082 6.85263ZM117.729 40.4619L117.204 40.9864L117.729 41.5112L118.254 40.9864L117.729 40.4619ZM117.729 3.50873L117.204 4.03319L117.729 4.55805L118.254 4.03319L117.729 3.50873ZM116.51 37.4201L115.683 38.2471L116.51 39.0744L117.338 38.2471L116.51 37.4201ZM116.51 5.96316L115.683 6.79012L116.51 7.61749L117.338 6.79012L116.51 5.96316Z" fill="#0369A1"/>
</g>
<mask id="mask1_2_1161" style="mask-type:luminance" maskUnits="userSpaceOnUse" x="3" y="9" width="3" height="3">
<path d="M3.69409 9.91162H5.63117V11.845H3.69409V9.91162Z" fill="white"/>
</mask>
<g mask="url(#mask1_2_1161)">
<path d="M3.69409 9.91162H5.63117V11.845H3.69409V9.91162Z" fill="#0369A1"/>
</g>
<path d="M49.8942 34.583L49.7193 35.4087H48.2796L47.4 39.5523H46.4195L47.2974 35.4087H45.8645L46.0377 34.583H49.8942Z" fill="white"/>
<path d="M54.9366 36.9343C54.8513 37.3517 54.6242 37.6509 54.2555 37.8321C53.8876 38.0134 53.4381 38.104 52.9066 38.104C52.7183 38.104 52.5433 38.0964 52.3819 38.0805C52.392 38.3301 52.458 38.5168 52.5803 38.641C52.7023 38.7644 52.8751 38.8256 53.0984 38.8256C53.3044 38.8256 53.4755 38.7849 53.6113 38.7031C53.748 38.6217 53.8729 38.4967 53.9864 38.3289H54.0587L54.6642 38.74C54.5485 38.9259 54.419 39.0824 54.2757 39.21C54.1331 39.3367 53.9519 39.4374 53.7324 39.512C53.5138 39.5867 53.2455 39.6245 52.9285 39.6245C52.6392 39.6245 52.381 39.5628 52.1548 39.4399C51.9295 39.3157 51.752 39.1369 51.6234 38.9028C51.4956 38.6679 51.4316 38.3872 51.4316 38.0604C51.4316 37.8749 51.4535 37.6786 51.4972 37.4713C51.5746 37.1088 51.7167 36.7975 51.9244 36.5365C52.1317 36.2747 52.3823 36.075 52.6762 35.9374C52.971 35.7998 53.2867 35.731 53.6231 35.731C53.909 35.731 54.152 35.7746 54.353 35.8619C54.5536 35.9491 54.705 36.0683 54.8071 36.2193C54.9101 36.3704 54.9619 36.5378 54.9619 36.7211C54.9619 36.7983 54.9535 36.8696 54.9366 36.9343ZM53.534 36.4627C53.3881 36.4627 53.2464 36.4958 53.1085 36.5617C52.9714 36.6267 52.8478 36.7257 52.7368 36.8587C52.6258 36.9909 52.5404 37.1558 52.4811 37.3538C52.656 37.3672 52.8217 37.374 52.9789 37.374C53.2872 37.374 53.5327 37.3354 53.7156 37.2582C53.8981 37.181 54.0103 37.045 54.052 36.8503C54.0562 36.8235 54.0587 36.8017 54.0587 36.7849C54.0587 36.6901 54.0133 36.6129 53.9225 36.5533C53.8317 36.4929 53.7021 36.4627 53.534 36.4627Z" fill="white"/>
<path d="M58.786 39.6245C58.4832 39.6245 58.215 39.5691 57.982 39.4583C57.7499 39.3467 57.5675 39.1793 57.4354 38.9565C57.3042 38.7329 57.2386 38.4589 57.2386 38.1342C57.2386 37.9597 57.2614 37.7629 57.3076 37.5435C57.3892 37.1675 57.5279 36.8436 57.723 36.5718C57.9181 36.2999 58.1658 36.0918 58.4664 35.9475C58.7679 35.8031 59.1114 35.731 59.4974 35.731C59.8897 35.731 60.1945 35.8056 60.4123 35.9542C60.631 36.1031 60.7832 36.3158 60.8698 36.5919L60.1651 37.0299H60.0928C60.0297 36.86 59.9418 36.7341 59.8287 36.6523C59.7164 36.5709 59.5596 36.5298 59.3578 36.5298C59.0921 36.5298 58.8608 36.6271 58.6649 36.8218C58.4685 37.0157 58.3272 37.3148 58.241 37.7197C58.2129 37.8451 58.199 37.9622 58.199 38.0704C58.199 38.3045 58.2587 38.4891 58.3789 38.6242C58.5 38.7585 58.6691 38.8256 58.8869 38.8256C59.2602 38.8256 59.5613 38.6083 59.79 38.1728L59.8657 38.1661L60.5166 38.5454C60.3572 38.8789 60.1348 39.1424 59.8489 39.3358C59.5638 39.5284 59.2098 39.6245 58.786 39.6245Z" fill="white"/>
<path d="M62.7018 39.5524L63.8185 34.2979H64.7621L64.3399 36.2933L64.4089 36.3067C64.7082 35.9232 65.1102 35.7311 65.6148 35.7311C65.9364 35.7311 66.1858 35.8242 66.3632 36.0097C66.5402 36.1943 66.6289 36.4473 66.6289 36.7682C66.6289 36.905 66.6121 37.051 66.5785 37.2062L66.0773 39.5524H65.1337L65.6215 37.2583C65.6391 37.1676 65.6484 37.0896 65.6484 37.0233C65.6484 36.8601 65.6021 36.7363 65.5105 36.6524C65.4184 36.5685 65.2839 36.5266 65.1068 36.5266C64.8478 36.5266 64.6279 36.6134 64.4476 36.7867C64.2668 36.9604 64.1368 37.2356 64.0574 37.6124L63.6453 39.5524H62.7018Z" fill="white"/>
<path d="M68.8491 39.5523L69.6463 35.8031H70.5528L70.4368 36.3536L70.5007 36.3704C70.642 36.1602 70.8093 36.0012 71.0036 35.8937C71.1974 35.7855 71.4316 35.731 71.7066 35.731C72.0518 35.731 72.3146 35.8249 72.4954 36.0129C72.6758 36.2 72.7662 36.4585 72.7662 36.7882C72.7662 36.9292 72.7493 37.0836 72.7157 37.2514L72.2246 39.5523H71.2811L71.7756 37.2313C71.7911 37.1608 71.7991 37.0895 71.7991 37.0165C71.7991 36.86 71.7537 36.7392 71.6629 36.654C71.572 36.5692 71.4379 36.5264 71.2609 36.5264C70.9994 36.5264 70.7782 36.6137 70.5966 36.7882C70.4149 36.9628 70.2842 37.2376 70.2047 37.6123L69.7926 39.5523H68.8491Z" fill="white"/>
<path d="M76.7204 39.6245C76.4017 39.6245 76.1242 39.5662 75.8879 39.4499C75.6524 39.3325 75.4699 39.1621 75.3413 38.9381C75.2134 38.7132 75.1495 38.4422 75.1495 38.1241C75.1495 37.9387 75.1714 37.7448 75.2151 37.5435C75.2967 37.1675 75.4329 36.8436 75.6238 36.5718C75.8143 36.2999 76.0552 36.0918 76.347 35.9475C76.6384 35.8031 76.9718 35.731 77.3477 35.731C77.6648 35.731 77.9414 35.7914 78.1769 35.9122C78.4132 36.0322 78.5957 36.2059 78.7235 36.4341C78.8521 36.6615 78.9169 36.9326 78.9169 37.2481C78.9169 37.4226 78.8967 37.6106 78.8564 37.812C78.7744 38.1879 78.6377 38.5118 78.446 38.7837C78.2542 39.0556 78.0121 39.2637 77.7194 39.408C77.4276 39.5523 77.0946 39.6245 76.7204 39.6245ZM76.8095 38.8256C77.0841 38.8256 77.3158 38.73 77.5041 38.5387C77.6925 38.3465 77.8275 38.0599 77.9095 37.6794C77.9431 37.5183 77.9599 37.3782 77.9599 37.2582C77.9599 37.011 77.8981 36.8281 77.7749 36.7094C77.6526 36.5898 77.4806 36.5298 77.2586 36.5298C76.9836 36.5298 76.7523 36.6263 76.564 36.8185C76.3756 37.0098 76.2402 37.2968 76.1587 37.6794C76.1238 37.8363 76.1065 37.9756 76.1065 38.0973C76.1065 38.3448 76.1679 38.5282 76.2915 38.6477C76.416 38.7665 76.5884 38.8256 76.8095 38.8256Z" fill="white"/>
<path d="M82.1021 39.6246C81.9448 39.6246 81.8044 39.5898 81.6799 39.5205C81.5563 39.4513 81.46 39.3494 81.3907 39.2151C81.3209 39.08 81.2864 38.918 81.2864 38.7301C81.2864 38.6105 81.3015 38.4834 81.3318 38.3491L82.1963 34.2979H83.1398L82.2484 38.4817C82.2383 38.5321 82.2333 38.5673 82.2333 38.5874C82.2333 38.6625 82.2534 38.7213 82.2938 38.7636C82.335 38.8052 82.3901 38.8257 82.4586 38.8257C82.5066 38.8257 82.5579 38.8165 82.6117 38.7972L82.6571 38.8106V39.5356C82.5246 39.5948 82.3396 39.6246 82.1021 39.6246Z" fill="white"/>
<path d="M86.7335 39.6245C86.4147 39.6245 86.1372 39.5662 85.9009 39.4499C85.6655 39.3325 85.483 39.1621 85.3543 38.9381C85.2265 38.7132 85.1626 38.4422 85.1626 38.1241C85.1626 37.9387 85.1845 37.7448 85.2282 37.5435C85.3098 37.1675 85.446 36.8436 85.6369 36.5718C85.8274 36.2999 86.0683 36.0918 86.3601 35.9475C86.6515 35.8031 86.9849 35.731 87.3608 35.731C87.6778 35.731 87.9545 35.7914 88.1899 35.9122C88.4262 36.0322 88.6087 36.2059 88.7365 36.4341C88.8652 36.6615 88.93 36.9326 88.93 37.2481C88.93 37.4226 88.9098 37.6106 88.8694 37.812C88.7874 38.1879 88.6508 38.5118 88.459 38.7837C88.2673 39.0556 88.0251 39.2637 87.7325 39.408C87.4407 39.5523 87.1077 39.6245 86.7335 39.6245ZM86.8226 38.8256C87.0972 38.8256 87.3288 38.73 87.5172 38.5387C87.7056 38.3465 87.8405 38.0599 87.9225 37.6794C87.9562 37.5183 87.973 37.3782 87.973 37.2582C87.973 37.011 87.9112 36.8281 87.788 36.7094C87.6656 36.5898 87.4937 36.5298 87.2716 36.5298C86.9967 36.5298 86.7654 36.6263 86.577 36.8185C86.3887 37.0098 86.2533 37.2968 86.1717 37.6794C86.1368 37.8363 86.1196 37.9756 86.1196 38.0973C86.1196 38.3448 86.181 38.5282 86.3046 38.6477C86.429 38.7665 86.6014 38.8256 86.8226 38.8256Z" fill="white"/>
<path d="M92.2514 41.1434C91.9217 41.1434 91.6312 41.1065 91.3802 41.0326C91.1287 40.9588 90.9345 40.8505 90.7966 40.7087C90.6578 40.5677 90.588 40.3987 90.588 40.2019C90.588 40.1402 90.5947 40.0764 90.6082 40.0106C90.6431 39.8528 90.736 39.7135 90.8874 39.5927C91.0375 39.4731 91.2343 39.4009 91.4777 39.3762L91.4912 39.304C91.4113 39.2402 91.3516 39.1723 91.3112 39.0993C91.2717 39.0254 91.2523 38.9398 91.2523 38.8425C91.2523 38.7854 91.2591 38.725 91.2725 38.6613C91.3297 38.3806 91.5643 38.1972 91.9772 38.1108L91.9924 38.0403C91.8599 37.9497 91.759 37.8414 91.6896 37.7147C91.6211 37.5872 91.587 37.4328 91.587 37.2515C91.587 37.1408 91.6005 37.0195 91.6274 36.8874C91.672 36.6725 91.7687 36.4774 91.9167 36.3016C92.0647 36.1263 92.2552 35.9874 92.4885 35.8854C92.7227 35.7827 92.9863 35.731 93.279 35.731C93.5927 35.731 93.8449 35.7948 94.0358 35.9224C94.1948 35.7545 94.3116 35.5515 94.3856 35.3132L94.4681 35.2695L95.1088 35.4357C95.0491 35.6383 94.9642 35.8028 94.8532 35.9291C94.7422 36.0558 94.59 36.1498 94.3974 36.211L94.3789 36.2865C94.4954 36.4154 94.5538 36.5828 94.5538 36.7883C94.5538 36.9004 94.5387 37.0262 94.5084 37.1659C94.4655 37.3719 94.3764 37.5587 94.241 37.7265C94.1065 37.8943 93.9181 38.0294 93.6759 38.1309C93.4337 38.2316 93.1428 38.282 92.803 38.282L92.6601 38.2769C92.5734 38.2727 92.5108 38.2702 92.4717 38.2702C92.3851 38.2702 92.3123 38.2937 92.2531 38.3407C92.1946 38.3869 92.1576 38.446 92.142 38.5186C92.1374 38.5421 92.1353 38.5597 92.1353 38.5706C92.1353 38.6336 92.1627 38.6839 92.2177 38.7217C92.2737 38.7586 92.3548 38.7796 92.4616 38.7838L93.1949 38.814C93.9505 38.8467 94.3285 39.1337 94.3285 39.6749C94.3285 39.7723 94.3171 39.8738 94.2948 39.9804C94.2486 40.1939 94.1502 40.3869 93.9988 40.5593C93.8483 40.7326 93.6276 40.8732 93.3362 40.9806C93.0456 41.0888 92.684 41.1434 92.2514 41.1434ZM92.946 37.6224C93.1276 37.6224 93.2807 37.5687 93.4051 37.4613C93.5304 37.3531 93.6145 37.197 93.6574 36.9931C93.6709 36.9339 93.6776 36.8785 93.6776 36.8269C93.6776 36.6906 93.636 36.5844 93.5531 36.5081C93.4699 36.4321 93.3538 36.394 93.205 36.394C93.0187 36.394 92.8644 36.4477 92.7425 36.5551C92.6214 36.6616 92.539 36.8164 92.4952 37.0199C92.4818 37.0816 92.4751 37.1391 92.4751 37.1928C92.4751 37.3296 92.5154 37.4353 92.5962 37.51C92.6769 37.5851 92.7933 37.6224 92.946 37.6224ZM92.3287 40.4603C92.5373 40.4603 92.7147 40.4385 92.8619 40.3949C93.0086 40.3521 93.1226 40.2959 93.2033 40.2254C93.284 40.1549 93.3332 40.0777 93.3513 39.9938C93.3601 39.9577 93.3648 39.9216 93.3648 39.8847C93.3648 39.7941 93.3282 39.7278 93.2554 39.6867C93.1823 39.6451 93.062 39.6195 92.8938 39.6095L92.2261 39.5759C92.1631 39.5713 92.1189 39.5692 92.0933 39.5692C91.9251 39.5692 91.7872 39.6103 91.6795 39.6934C91.5719 39.776 91.5181 39.8868 91.5181 40.0257C91.5181 40.1633 91.5896 40.2699 91.7334 40.3462C91.878 40.4222 92.0765 40.4603 92.3287 40.4603Z" fill="white"/>
<path d="M98.248 35.355C98.0772 35.355 97.9389 35.3038 97.8325 35.2006C97.7257 35.0965 97.6728 34.9635 97.6728 34.8012C97.6728 34.6401 97.7257 34.5083 97.8325 34.4051C97.9389 34.301 98.0772 34.249 98.248 34.249C98.3611 34.249 98.462 34.2734 98.5507 34.3212C98.639 34.3682 98.7075 34.4332 98.7559 34.5159C98.8051 34.5989 98.8299 34.6938 98.8299 34.8012C98.8299 34.9077 98.8051 35.0026 98.7559 35.0865C98.7075 35.1704 98.639 35.2367 98.5507 35.2845C98.462 35.3315 98.3611 35.355 98.248 35.355ZM96.7662 39.5523L97.5668 35.8031H98.5103L97.7098 39.5523H96.7662Z" fill="white"/>
<path d="M104.211 36.9343C104.126 37.3517 103.899 37.6509 103.53 37.8321C103.162 38.0134 102.713 38.104 102.181 38.104C101.993 38.104 101.818 38.0964 101.657 38.0805C101.667 38.3301 101.733 38.5168 101.855 38.641C101.977 38.7644 102.15 38.8256 102.373 38.8256C102.579 38.8256 102.75 38.7849 102.886 38.7031C103.023 38.6217 103.148 38.4967 103.261 38.3289H103.333L103.939 38.74C103.823 38.9259 103.694 39.0824 103.55 39.21C103.408 39.3367 103.227 39.4374 103.007 39.512C102.789 39.5867 102.52 39.6245 102.203 39.6245C101.914 39.6245 101.656 39.5628 101.43 39.4399C101.204 39.3157 101.027 39.1369 100.898 38.9028C100.77 38.6679 100.706 38.3872 100.706 38.0604C100.706 37.8749 100.728 37.6786 100.772 37.4713C100.849 37.1088 100.991 36.7975 101.199 36.5365C101.406 36.2747 101.657 36.075 101.951 35.9374C102.246 35.7998 102.562 35.731 102.898 35.731C103.184 35.731 103.427 35.7746 103.628 35.8619C103.828 35.9491 103.98 36.0683 104.082 36.2193C104.185 36.3704 104.237 36.5378 104.237 36.7211C104.237 36.7983 104.228 36.8696 104.211 36.9343ZM102.809 36.4627C102.663 36.4627 102.521 36.4958 102.383 36.5617C102.246 36.6267 102.123 36.7257 102.012 36.8587C101.901 36.9909 101.815 37.1558 101.756 37.3538C101.931 37.3672 102.096 37.374 102.254 37.374C102.562 37.374 102.807 37.3354 102.99 37.2582C103.173 37.181 103.285 37.045 103.327 36.8503C103.331 36.8235 103.333 36.8017 103.333 36.7849C103.333 36.6901 103.288 36.6129 103.197 36.5533C103.106 36.4929 102.977 36.4627 102.809 36.4627Z" fill="white"/>
<path d="M107.583 39.6245C107.359 39.6245 107.148 39.5926 106.952 39.5288C106.757 39.465 106.59 39.3786 106.451 39.2687C106.313 39.1592 106.212 39.0363 106.145 38.8995L106.766 38.3591H106.838C106.929 38.5269 107.05 38.6528 107.201 38.7367C107.354 38.8206 107.53 38.8626 107.729 38.8626C107.939 38.8626 108.099 38.8214 108.21 38.7384C108.321 38.6557 108.377 38.5382 108.377 38.3859C108.377 38.2999 108.345 38.2265 108.283 38.1661C108.221 38.1048 108.117 38.0532 107.972 38.0117L107.502 37.8808C107.268 37.8128 107.079 37.7037 106.936 37.5535C106.793 37.4037 106.722 37.2091 106.722 36.9695C106.722 36.8835 106.732 36.7895 106.752 36.6876C106.816 36.3855 106.983 36.1505 107.253 35.9827C107.523 35.8149 107.883 35.731 108.33 35.731C108.643 35.731 108.907 35.783 109.124 35.887C109.341 35.9902 109.505 36.1253 109.616 36.2932L109.024 36.8134H108.956C108.877 36.6951 108.778 36.6087 108.658 36.555C108.539 36.5004 108.399 36.4727 108.237 36.4727C108.044 36.4727 107.897 36.4996 107.795 36.5533C107.693 36.6062 107.63 36.6876 107.607 36.7983C107.602 36.8264 107.6 36.847 107.6 36.8604C107.6 36.9401 107.635 37.0094 107.706 37.0685C107.777 37.1268 107.876 37.1726 108.005 37.2061L108.436 37.3186C109.016 37.4688 109.307 37.7746 109.307 38.2366C109.307 38.3339 109.296 38.4325 109.273 38.5319C109.191 38.897 109.016 39.1705 108.749 39.3526C108.48 39.5339 108.092 39.6245 107.583 39.6245Z" fill="white"/>
<mask id="mask2_2_1161" style="mask-type:luminance" maskUnits="userSpaceOnUse" x="0" y="9" width="3" height="2">
<path d="M0.984985 9.04883H2.92249V10.9817H0.984985V9.04883Z" fill="white"/>
</mask>
<g mask="url(#mask2_2_1161)">
<path d="M0.984985 9.04883H2.92249V10.9817H0.984985V9.04883Z" fill="#0369A1"/>
</g>
<mask id="mask3_2_1161" style="mask-type:luminance" maskUnits="userSpaceOnUse" x="3" y="5" width="5" height="4">
<path d="M3.69409 5.27246H7.37147V8.75187H3.69409V5.27246Z" fill="white"/>
</mask>
<g mask="url(#mask3_2_1161)">
<path d="M3.69409 5.27246H7.37147V8.75187H3.69409V5.27246Z" fill="#0369A1"/>
</g>
</g>
<defs>
<clipPath id="clip0_2_1161">
<rect width="146.014" height="45" fill="white"/>
</clipPath>
</defs>
</svg>
