<svg width="133" height="41" viewBox="0 0 133 41" fill="none" xmlns="http://www.w3.org/2000/svg">
<g clip-path="url(#clip0_2_1240)">
<path d="M6.92133 28.3605H3.29382L7.18448 10.0826H10.812L6.92133 28.3605Z" fill="black"/>
<path d="M11.3024 28.3605L14.2383 14.5705H17.5782L17.1514 16.5958L17.39 16.6583C17.9079 15.8834 18.5245 15.2982 19.2397 14.9027C19.9558 14.5065 20.8202 14.3084 21.833 14.3084C23.1048 14.3084 24.0732 14.6524 24.7384 15.3401C25.4031 16.027 25.7359 16.9791 25.7359 18.1959C25.7359 18.7133 25.6732 19.2802 25.5477 19.8966L23.7408 28.3605H20.2633L22.0839 19.822C22.142 19.5629 22.1711 19.3004 22.1711 19.0341C22.1711 18.4592 22.0036 18.0153 21.6693 17.7022C21.3346 17.3894 20.8408 17.2328 20.1883 17.2328C19.2264 17.2328 18.4105 17.554 17.7404 18.1959C17.071 18.8383 16.5903 19.8463 16.2976 21.2209L14.7784 28.3605H11.3024Z" fill="black"/>
<path d="M31.699 34.2123C30.485 34.2123 29.4156 34.0767 28.4907 33.8054C27.5666 33.5342 26.8499 33.138 26.3396 32.6168C25.8286 32.0964 25.5731 31.4738 25.5731 30.7485C25.5731 30.5229 25.5984 30.2898 25.6481 30.049C25.7735 29.4646 26.1147 28.9518 26.6716 28.5098C27.2274 28.069 27.953 27.8023 28.8487 27.7098L28.8992 27.4476C28.6062 27.2141 28.3867 26.9623 28.2398 26.6918C28.0937 26.4205 28.021 26.1058 28.021 25.7469C28.021 25.5389 28.0459 25.3183 28.096 25.0856C28.3048 24.0516 29.1708 23.3757 30.6939 23.0588L30.7443 22.7966C30.2586 22.4637 29.8883 22.0636 29.6336 21.5973C29.3785 21.1302 29.2511 20.5633 29.2511 19.8966C29.2511 19.4882 29.3008 19.0425 29.401 18.5586C29.5682 17.7673 29.9235 17.0484 30.4674 16.4023C31.0121 15.7561 31.7151 15.2456 32.5772 14.8707C33.439 14.4958 34.4093 14.3084 35.4887 14.3084C36.6431 14.3084 37.5717 14.5416 38.2747 15.0079C38.8611 14.3915 39.2925 13.6451 39.5691 12.7692L39.869 12.6077L42.2297 13.2203C42.0113 13.9621 41.6972 14.5667 41.2872 15.0338C40.8772 15.5001 40.3165 15.8457 39.6058 16.0701L39.5431 16.3459C39.9703 16.8206 40.1841 17.437 40.1841 18.1959C40.1841 18.6043 40.1294 19.0672 40.0204 19.5842C39.8613 20.3424 39.5327 21.03 39.0351 21.6476C38.5371 22.2644 37.8425 22.7582 36.9513 23.1289C36.0598 23.4999 34.9869 23.6851 33.7323 23.6851L33.2045 23.6714C32.8863 23.6554 32.656 23.647 32.5145 23.647C32.1963 23.647 31.9278 23.7323 31.7097 23.903C31.4925 24.0737 31.3548 24.2927 31.2967 24.5598C31.2802 24.6432 31.2722 24.7057 31.2722 24.7473C31.2722 24.9812 31.3747 25.1663 31.5797 25.3035C31.7847 25.4406 32.0834 25.518 32.4762 25.5351L35.1751 25.6479C37.9615 25.7649 39.3549 26.819 39.3549 28.81C39.3549 29.1685 39.3128 29.5438 39.2294 29.9362C39.0619 30.7195 38.7001 31.4296 38.1432 32.0666C37.587 32.7044 36.7739 33.2218 35.7029 33.618C34.6319 34.0142 33.2971 34.2123 31.699 34.2123ZM34.2586 21.259C34.9288 21.259 35.4937 21.0617 35.9538 20.6662C36.4136 20.27 36.7234 19.6966 36.8825 18.9457C36.9322 18.7293 36.9575 18.5251 36.9575 18.3331C36.9575 17.8332 36.8045 17.4439 36.4985 17.1642C36.1933 16.885 35.7649 16.7452 35.2133 16.7452C34.5268 16.7452 33.9595 16.9414 33.512 17.3334C33.0641 17.7258 32.7608 18.2965 32.6017 19.0463C32.5516 19.2711 32.5267 19.4833 32.5267 19.6833C32.5267 20.1843 32.6751 20.5725 32.9719 20.8475C33.2695 21.1219 33.6987 21.259 34.2586 21.259ZM31.9867 31.6979C32.7566 31.6979 33.4114 31.6186 33.9511 31.4601C34.4904 31.3024 34.9089 31.0944 35.2057 30.8353C35.5032 30.577 35.6853 30.2943 35.7519 29.9865C35.7855 29.8524 35.8024 29.7187 35.8024 29.5857C35.8024 29.2523 35.6681 29.0085 35.4 28.8542C35.1326 28.6995 34.6893 28.6058 34.0705 28.5723L31.6103 28.4473C31.3754 28.431 31.2125 28.423 31.1207 28.423C30.5015 28.423 29.9931 28.5746 29.5954 28.8786C29.1983 29.1834 29.0002 29.5895 29.0002 30.0977C29.0002 30.6067 29.2656 31.0003 29.7973 31.2788C30.3286 31.558 31.0584 31.6979 31.9867 31.6979Z" fill="black"/>
<path d="M48.2792 28.6226C47.1072 28.6226 46.086 28.4081 45.2162 27.9795C44.3461 27.5497 43.6744 26.9227 43.2013 26.0975C42.7289 25.2726 42.4929 24.2764 42.4929 23.109C42.4929 22.4263 42.5725 21.7139 42.7316 20.971C43.0322 19.5873 43.534 18.3956 44.2371 17.3959C44.9397 16.3962 45.8286 15.6319 46.9038 15.1024C47.9797 14.5732 49.2082 14.3084 50.5894 14.3084C51.7602 14.3084 52.7807 14.5294 53.6508 14.9713C54.5218 15.4125 55.1934 16.0518 55.6658 16.8899C56.1389 17.7273 56.3757 18.7255 56.3757 19.8844C56.3757 20.5256 56.2999 21.2171 56.1492 21.9585C55.8482 23.3422 55.3437 24.5347 54.6361 25.5351C53.9293 26.5348 53.0381 27.2994 51.9633 27.8286C50.8881 28.3582 49.66 28.6226 48.2792 28.6226ZM48.6051 25.6845C49.6179 25.6845 50.4716 25.3324 51.1662 24.6284C51.8608 23.9243 52.3584 22.8725 52.6594 21.4724C52.7849 20.8803 52.8476 20.3629 52.8476 19.921C52.8476 19.0128 52.6216 18.3403 52.1698 17.9033C51.7177 17.4656 51.082 17.2465 50.262 17.2465C49.2499 17.2465 48.397 17.5986 47.7024 18.3026C47.0078 19.0067 46.5094 20.0635 46.2076 21.4724C46.0822 22.0476 46.0194 22.5601 46.0194 23.01C46.0194 23.9182 46.2474 24.5914 46.7033 25.0292C47.16 25.4662 47.7942 25.6845 48.6051 25.6845Z" fill="black"/>
<path d="M62.4 28.6226C61.6136 28.6226 60.9458 28.458 60.3973 28.1288C59.8496 27.7997 59.4354 27.3395 59.155 26.7482C58.8742 26.1561 58.7343 25.4723 58.7343 24.697C58.7343 24.2135 58.7928 23.6881 58.9102 23.1212L60.7308 14.5705H64.2069L62.3618 23.2721C62.3117 23.522 62.2868 23.7552 62.2868 23.9716C62.2868 24.5141 62.4459 24.9378 62.7641 25.2425C63.0824 25.5466 63.5467 25.6982 64.1579 25.6982C66.1323 25.6982 67.3999 24.3937 67.9598 21.7848L69.4913 14.5705H72.9689L70.0314 28.3605H66.693L67.1199 26.3352L66.8812 26.2727C66.3281 27.0735 65.7066 27.6652 65.0162 28.0481C64.3266 28.431 63.4545 28.6226 62.4 28.6226Z" fill="black"/>
<path d="M79.181 28.6226C78.3029 28.6226 77.5165 28.4371 76.8219 28.0664C76.1273 27.6957 75.5769 27.1246 75.1711 26.3535C74.7649 25.5824 74.5621 24.6177 74.5621 23.4596C74.5621 22.6926 74.6623 21.8343 74.8635 20.8841C75.3233 18.7415 76.1579 17.1102 77.3665 15.9893C78.576 14.8688 80.1059 14.3084 81.9564 14.3084C82.8009 14.3084 83.5158 14.4772 84.1014 14.8144C84.6877 15.1519 85.144 15.6247 85.4707 16.2331L85.7461 16.1707L87.2775 9.03109H90.7551L86.6242 28.3605H83.1482L83.5123 26.6979L83.2614 26.6476C82.7596 27.2979 82.1985 27.7898 81.5785 28.1228C80.9592 28.4557 80.1602 28.6226 79.181 28.6226ZM80.6008 25.6845C81.5789 25.6845 82.4154 25.3622 83.11 24.7168C83.8045 24.0707 84.298 23.0725 84.5909 21.7223C84.7164 21.1219 84.7791 20.5927 84.7791 20.1344C84.7791 19.1674 84.5489 18.4443 84.0891 17.9658C83.629 17.4866 83.0388 17.2465 82.319 17.2465C81.3234 17.2465 80.4846 17.5845 79.8022 18.2599C79.1206 18.9347 78.6417 19.9218 78.3656 21.2209C78.2317 21.8389 78.1652 22.4016 78.1652 22.9094C78.1652 23.8596 78.3843 24.5595 78.823 25.0094C79.2625 25.4597 79.855 25.6845 80.6008 25.6845Z" fill="black"/>
<path d="M104.172 18.7339C103.854 20.2669 103.017 21.3672 101.662 22.0347C100.306 22.7014 98.6492 23.0344 96.6908 23.0344C95.9962 23.0344 95.3521 23.0054 94.7585 22.9475C94.7922 23.8641 95.0347 24.5492 95.4868 25.0033C95.9385 25.4574 96.5746 25.6845 97.3946 25.6845C98.1554 25.6845 98.7869 25.5347 99.2887 25.2349C99.7913 24.9355 100.252 24.4771 100.67 23.8603H100.933L103.169 25.3721C102.741 26.0559 102.264 26.6316 101.737 27.0987C101.21 27.565 100.543 27.9361 99.7354 28.2111C98.9276 28.4854 97.9381 28.6226 96.7673 28.6226C95.7044 28.6226 94.7562 28.3955 93.9232 27.9414C93.0909 27.4873 92.438 26.8289 91.9648 25.9664C91.4925 25.1039 91.2565 24.0722 91.2565 22.8713C91.2565 22.1886 91.336 21.4678 91.4951 20.7089C91.7797 19.3751 92.3045 18.2272 93.0695 17.2648C93.8352 16.3017 94.7601 15.5683 95.8433 15.0643C96.9272 14.5606 98.0885 14.3084 99.3269 14.3084C100.381 14.3084 101.279 14.4692 102.02 14.79C102.76 15.11 103.319 15.5474 103.695 16.1021C104.071 16.656 104.259 17.2705 104.259 17.946C104.259 18.2295 104.23 18.4923 104.172 18.7339ZM99.0011 16.9951C98.4656 16.9951 97.9443 17.1162 97.4375 17.3578C96.9314 17.5997 96.4736 17.9643 96.0636 18.4519C95.6535 18.9396 95.3399 19.5461 95.1226 20.2715C95.7671 20.3214 96.378 20.3462 96.9555 20.3462C98.0927 20.3462 98.998 20.2045 99.6712 19.921C100.345 19.6376 100.758 19.1377 100.909 18.4215C100.925 18.3209 100.933 18.2416 100.933 18.1837C100.933 17.8332 100.766 17.5479 100.432 17.3273C100.097 17.1059 99.6199 16.9951 99.0011 16.9951Z" fill="black"/>
<mask id="mask0_2_1240" style="mask-type:luminance" maskUnits="userSpaceOnUse" x="104" y="0" width="29" height="41">
<path d="M104.852 0.831909H132.465V40.1856H104.852V0.831909Z" fill="white"/>
</mask>
<g mask="url(#mask0_2_1240)">
<path fill-rule="evenodd" clip-rule="evenodd" d="M124.204 12.2918L123.297 11.3873L122.779 11.9039L122.261 12.4209L121.216 11.379L120.172 12.4209L119.128 11.379L120.172 10.3374L121.216 11.379L122.261 10.3374L120.366 8.4477L119.322 9.4893L118.278 8.4637L116.197 10.5393L114.109 8.4557L115.153 7.41372L114.141 6.4045L112.142 8.37493L111.098 7.33295L109.009 9.41653L107.965 8.37493L106.921 9.41653L107.965 10.4585L106.921 11.5001L107.965 12.5421L109.009 11.5001L110.053 12.5421L111.098 11.5001L112.142 12.5421L113.186 11.5001L114.231 12.5421L113.186 13.5837L112.142 12.5421L111.098 13.5837L110.053 12.5421L109.009 13.5837L112.142 16.7092L113.186 15.6673L114.231 16.7092L113.186 17.7508L114.255 18.8168L115.056 19.6165L115.963 20.521L115.056 21.4254L114.255 22.2251L113.186 23.2911L114.231 24.3327L113.186 25.3746L112.142 24.3327L109.009 27.4582L110.053 28.4998L109.009 29.5418L107.965 28.4998L106.921 29.5418L107.965 30.5834L106.921 31.6254L107.965 32.667L109.009 31.6254L111.098 33.709L110.053 34.7506L111.098 35.7925L112.142 34.7506L111.098 33.709L112.142 32.651L114.141 34.6214L115.153 33.6118L114.109 32.5702L116.197 30.4866L118.278 32.5622L119.322 31.5202L120.366 32.5622L122.261 30.6722L121.216 29.6306L120.172 30.6722L119.128 29.6306L120.172 28.5886L121.216 29.6306L122.261 28.5886L122.779 29.1056L123.297 29.6226L124.204 28.7181L132.444 20.513L124.204 12.2918ZM117.363 25.3583L118.407 26.4002L117.363 27.4418L116.319 26.4002L117.363 25.3583ZM117.355 13.5837L118.399 14.6257L117.355 15.6673L116.311 14.6257L117.355 13.5837ZM116.197 28.403L117.242 29.4446L116.197 30.4866L115.153 29.4446L116.197 28.403ZM116.197 10.5393L117.242 11.5809L116.197 12.6229L115.153 11.5809L116.197 10.5393ZM115.275 23.2831L116.319 24.3247L115.275 25.3666L114.231 24.3247L115.275 23.2831ZM115.275 15.6593L116.319 16.7012L115.275 17.7428L114.231 16.7012L115.275 15.6593ZM114.231 26.4002L113.186 27.4418L112.142 26.4002L113.186 25.3583L114.231 26.4002ZM114.231 14.6177L113.186 15.6593L112.142 14.6177L113.186 13.5757L114.231 14.6177ZM114.231 28.4838L113.186 29.5254L112.142 28.4838L111.098 29.5254L110.053 28.4838L111.098 27.4418L112.142 28.4838L113.186 27.4418L114.231 28.4838ZM114.231 30.5674L112.142 32.651L111.098 31.609L113.186 29.5254L114.231 30.5674ZM114.231 10.4585L113.186 11.5001L111.098 9.41653L112.142 8.37493L114.231 10.4585ZM109.017 29.5254L110.061 30.5674L109.017 31.609L107.973 30.5674L109.017 29.5254ZM109.017 9.41653L110.061 10.4585L109.017 11.5001L107.973 10.4585L109.017 9.41653ZM118.278 32.5622L119.322 33.6038L118.278 34.6458L117.234 33.6038L116.189 34.6458L115.145 33.6038L116.189 32.5702L117.234 33.6118L118.278 32.5622ZM118.278 6.38012L119.322 7.4221L118.278 8.4637L117.234 7.4221L116.189 8.4637L115.145 7.4221L116.189 6.38012L117.234 7.4221L118.278 6.38012ZM116.189 34.6458L117.234 35.6874L116.189 36.7294L115.145 35.6874L116.189 34.6458ZM116.189 4.29654L115.145 5.33852L116.189 6.38012L117.234 5.33852L116.189 4.29654ZM113.437 36.4791L112.684 37.23L113.437 37.9809L114.19 37.23L113.437 36.4791ZM113.437 3.04464L112.684 3.79593L113.437 4.54684L114.19 3.79593L113.437 3.04464ZM111.098 5.25775L112.142 6.29935L111.098 7.34133L110.053 6.29935L111.098 5.25775ZM111.559 39.2328L111.074 39.7094L111.551 40.1856L112.037 39.701L111.559 39.2328ZM111.551 0.831909L111.074 1.30852L111.559 1.78512L112.037 1.31652L111.551 0.831909ZM111.397 36.8341L110.911 37.3107L111.389 37.7873L111.867 37.3027L111.397 36.8341ZM111.397 3.23056L110.92 3.70716L111.405 4.18339L111.883 3.70716L111.397 3.23056ZM108.977 35.7118L109.73 36.4627L108.977 37.214L108.224 36.4627L108.977 35.7118ZM108.977 3.81193L108.224 4.56323L108.977 5.31414L109.73 4.56323L108.977 3.81193ZM108.629 38.9825L108.151 39.4671L108.629 39.9433L109.106 39.4671L108.629 38.9825ZM108.629 1.08221L108.151 1.55882L108.629 2.04343L109.114 1.55882L108.629 1.08221ZM107.973 32.651L109.017 33.6926L107.973 34.7346L106.929 33.6926L107.973 32.651ZM107.965 6.29135L109.009 7.33295L107.965 8.37493L106.921 7.33295L107.965 6.29135ZM106.735 36.8101L106.257 37.2864L106.735 37.763L107.212 37.2864L106.735 36.8101ZM106.735 3.25494L106.257 3.73117L106.735 4.20777L107.212 3.73117L106.735 3.25494ZM105.625 34.048L104.873 34.7989L105.625 35.5502L106.379 34.7989L105.625 34.048ZM105.625 5.48367L104.873 6.23459L105.625 6.98588L106.379 6.23459L105.625 5.48367Z" fill="#0369A1"/>
</g>
<mask id="mask1_2_1240" style="mask-type:luminance" maskUnits="userSpaceOnUse" x="2" y="9" width="3" height="2">
<path d="M2.99915 9.06908H4.76126V10.8246H2.99915V9.06908Z" fill="white"/>
</mask>
<g mask="url(#mask1_2_1240)">
<path d="M2.99915 9.06908H4.76126V10.8246H2.99915V9.06908Z" fill="#0369A1"/>
</g>
<path d="M45.0265 31.4719L44.8674 32.2217H43.5577L42.7576 35.9843H41.8656L42.6642 32.2217H41.3607L41.5183 31.4719H45.0265Z" fill="black"/>
<path d="M49.6133 33.6069C49.5357 33.986 49.3292 34.2577 48.9937 34.4222C48.659 34.5868 48.2502 34.6691 47.7667 34.6691C47.5953 34.6691 47.4362 34.6623 47.2893 34.6478C47.2985 34.8745 47.3586 35.044 47.4699 35.1568C47.5808 35.2688 47.738 35.3244 47.9411 35.3244C48.1285 35.3244 48.2842 35.2875 48.4077 35.2132C48.532 35.1392 48.6456 35.0257 48.7489 34.8733H48.8147L49.3655 35.2467C49.2603 35.4155 49.1425 35.5576 49.0121 35.6734C48.8824 35.7884 48.7176 35.8799 48.5179 35.9477C48.319 36.0155 48.075 36.0498 47.7866 36.0498C47.5234 36.0498 47.2886 35.9938 47.0828 35.8822C46.8778 35.7694 46.7164 35.6071 46.5993 35.3945C46.4831 35.1812 46.4249 34.9263 46.4249 34.6295C46.4249 34.4611 46.4448 34.2828 46.4846 34.0946C46.555 33.7654 46.6843 33.4827 46.8732 33.2458C47.0618 33.008 47.2897 32.8267 47.5571 32.7017C47.8252 32.5768 48.1125 32.5143 48.4184 32.5143C48.6785 32.5143 48.8996 32.5539 49.0824 32.6332C49.2649 32.7124 49.4026 32.8206 49.4955 32.9578C49.5892 33.0949 49.6363 33.2469 49.6363 33.4134C49.6363 33.4835 49.6286 33.5483 49.6133 33.6069ZM48.3374 33.1787C48.2046 33.1787 48.0757 33.2088 47.9503 33.2686C47.8256 33.3277 47.7131 33.4176 47.6122 33.5384C47.5112 33.6584 47.4335 33.8081 47.3796 33.9879C47.5387 34.0001 47.6894 34.0062 47.8325 34.0062C48.1128 34.0062 48.3362 33.9712 48.5026 33.9011C48.6686 33.831 48.7707 33.7075 48.8086 33.5308C48.8124 33.5064 48.8147 33.4866 48.8147 33.4713C48.8147 33.3852 48.7734 33.3151 48.6908 33.261C48.6082 33.2062 48.4904 33.1787 48.3374 33.1787Z" fill="black"/>
<path d="M53.1151 36.0498C52.8397 36.0498 52.5957 35.9995 52.3838 35.8989C52.1726 35.7976 52.0066 35.6456 51.8865 35.4433C51.7672 35.2402 51.7075 34.9914 51.7075 34.6966C51.7075 34.5381 51.7282 34.3594 51.7702 34.1601C51.8444 33.8188 51.9707 33.5247 52.1481 33.2778C52.3256 33.0309 52.5509 32.8419 52.8244 32.7109C53.0986 32.5798 53.4111 32.5143 53.7622 32.5143C54.1191 32.5143 54.3964 32.5821 54.5945 32.717C54.7934 32.8522 54.9319 33.0454 55.0107 33.2961L54.3696 33.6938H54.3038C54.2465 33.5395 54.1665 33.4252 54.0636 33.3509C53.9615 33.277 53.8188 33.2397 53.6353 33.2397C53.3935 33.2397 53.1832 33.3281 53.0049 33.5048C52.8263 33.6809 52.6978 33.9525 52.6194 34.3201C52.5937 34.4341 52.5811 34.5403 52.5811 34.6386C52.5811 34.8512 52.6354 35.0189 52.7448 35.1415C52.855 35.2634 53.0087 35.3244 53.2069 35.3244C53.5465 35.3244 53.8204 35.1271 54.0285 34.7316L54.0973 34.7255L54.6894 35.0699C54.5444 35.3728 54.3421 35.612 54.082 35.7877C53.8227 35.9625 53.5006 36.0498 53.1151 36.0498Z" fill="black"/>
<path d="M56.6771 35.9843L57.693 31.2129H58.5513L58.1673 33.0248L58.23 33.037C58.5024 32.6888 58.868 32.5143 59.327 32.5143C59.6196 32.5143 59.8464 32.5989 60.0078 32.7673C60.1688 32.9349 60.2496 33.1647 60.2496 33.4561C60.2496 33.5803 60.2343 33.7129 60.2037 33.8538L59.7477 35.9843H58.8894L59.3331 33.9011C59.3492 33.8188 59.3576 33.7479 59.3576 33.6877C59.3576 33.5395 59.3155 33.4271 59.2321 33.351C59.1484 33.2748 59.026 33.2367 58.8649 33.2367C58.6293 33.2367 58.4293 33.3155 58.2652 33.4729C58.1007 33.6306 57.9826 33.8805 57.9103 34.2226L57.5354 35.9843H56.6771Z" fill="black"/>
<path d="M62.2693 35.9843L62.9945 32.5798H63.8191L63.7136 33.0797L63.7717 33.0949C63.9002 32.904 64.0524 32.7596 64.2292 32.6621C64.4055 32.5638 64.6185 32.5143 64.8687 32.5143C65.1827 32.5143 65.4217 32.5996 65.5862 32.7703C65.7503 32.9402 65.8325 33.1749 65.8325 33.4744C65.8325 33.6024 65.8172 33.7426 65.7866 33.895L65.3399 35.9843H64.4816L64.9314 33.8767C64.9455 33.8127 64.9528 33.7479 64.9528 33.6816C64.9528 33.5395 64.9115 33.4298 64.8289 33.3525C64.7463 33.2755 64.6243 33.2366 64.4632 33.2366C64.2253 33.2366 64.0241 33.3159 63.8589 33.4744C63.6937 33.6329 63.5747 33.8824 63.5024 34.2226L63.1276 35.9843H62.2693Z" fill="black"/>
<path d="M69.4296 36.0498C69.1397 36.0498 68.8872 35.9968 68.6723 35.8913C68.4581 35.7846 68.2921 35.63 68.175 35.4265C68.0587 35.2223 68.0006 34.9762 68.0006 34.6874C68.0006 34.519 68.0205 34.343 68.0603 34.1601C68.1345 33.8188 68.2584 33.5247 68.4321 33.2778C68.6053 33.0309 68.8245 32.8419 69.0899 32.7109C69.355 32.5798 69.6583 32.5143 70.0003 32.5143C70.2886 32.5143 70.5403 32.5692 70.7545 32.6789C70.9695 32.7878 71.1355 32.9456 71.2517 33.1528C71.3688 33.3593 71.4277 33.6054 71.4277 33.8919C71.4277 34.0504 71.4093 34.2211 71.3726 34.404C71.298 34.7453 71.1737 35.0394 70.9993 35.2863C70.8249 35.5332 70.6046 35.7221 70.3384 35.8532C70.0729 35.9843 69.77 36.0498 69.4296 36.0498ZM69.5107 35.3244C69.7604 35.3244 69.9712 35.2375 70.1425 35.0638C70.3139 34.8893 70.4367 34.6291 70.5113 34.2836C70.5419 34.1373 70.5572 34.01 70.5572 33.9011C70.5572 33.6767 70.5009 33.5106 70.3889 33.4027C70.2776 33.2942 70.1211 33.2397 69.9192 33.2397C69.669 33.2397 69.4587 33.3273 69.2873 33.5018C69.1159 33.6755 68.9928 33.9361 68.9186 34.2836C68.8868 34.4261 68.8712 34.5525 68.8712 34.663C68.8712 34.8878 68.927 35.0543 69.0394 35.1629C69.1527 35.2707 69.3095 35.3244 69.5107 35.3244Z" fill="black"/>
<path d="M74.3252 36.0498C74.1821 36.0498 74.0544 36.0182 73.9411 35.9553C73.8287 35.8925 73.7411 35.7999 73.678 35.678C73.6145 35.5553 73.5831 35.4082 73.5831 35.2376C73.5831 35.129 73.5969 35.0135 73.6244 34.8916L74.4108 31.2129H75.2691L74.4583 35.012C74.4491 35.0577 74.4445 35.0897 74.4445 35.108C74.4445 35.1762 74.4628 35.2296 74.4996 35.268C74.5371 35.3058 74.5872 35.3244 74.6495 35.3244C74.6931 35.3244 74.7398 35.316 74.7887 35.2985L74.83 35.3107V35.969C74.7096 36.0228 74.5413 36.0498 74.3252 36.0498Z" fill="black"/>
<path d="M78.5382 36.0498C78.2483 36.0498 77.9959 35.9968 77.7809 35.8913C77.5667 35.7846 77.4007 35.63 77.2837 35.4265C77.1674 35.2223 77.1093 34.9762 77.1093 34.6874C77.1093 34.519 77.1291 34.343 77.1689 34.1601C77.2431 33.8188 77.367 33.5247 77.5407 33.2778C77.714 33.0309 77.9331 32.8419 78.1986 32.7109C78.4636 32.5798 78.767 32.5143 79.1089 32.5143C79.3973 32.5143 79.649 32.5692 79.8632 32.6789C80.0781 32.7878 80.2441 32.9456 80.3604 33.1528C80.4774 33.3593 80.5363 33.6054 80.5363 33.8919C80.5363 34.0504 80.518 34.2211 80.4813 34.404C80.4067 34.7453 80.2824 35.0394 80.108 35.2863C79.9335 35.5332 79.7132 35.7221 79.447 35.8532C79.1816 35.9843 78.8786 36.0498 78.5382 36.0498ZM78.6193 35.3244C78.8691 35.3244 79.0798 35.2375 79.2512 35.0638C79.4225 34.8893 79.5453 34.6291 79.6199 34.2836C79.6505 34.1373 79.6658 34.01 79.6658 33.9011C79.6658 33.6767 79.6096 33.5106 79.4975 33.4027C79.3862 33.2942 79.2298 33.2397 79.0278 33.2397C78.7777 33.2397 78.5673 33.3273 78.3959 33.5018C78.2246 33.6755 78.1014 33.9361 78.0272 34.2836C77.9955 34.4261 77.9798 34.5525 77.9798 34.663C77.9798 34.8878 78.0356 35.0543 78.1481 35.1629C78.2613 35.2707 78.4181 35.3244 78.6193 35.3244Z" fill="black"/>
<path d="M83.5577 37.429C83.2578 37.429 82.9935 37.3954 82.7652 37.3284C82.5364 37.2613 82.3597 37.163 82.2343 37.0343C82.108 36.9063 82.0446 36.7527 82.0446 36.574C82.0446 36.518 82.0507 36.4601 82.0629 36.4003C82.0947 36.2571 82.1792 36.1306 82.3169 36.0209C82.4534 35.9123 82.6324 35.8467 82.8539 35.8243L82.8661 35.7587C82.7935 35.7008 82.7392 35.6391 82.7024 35.5728C82.6665 35.5058 82.6489 35.4281 82.6489 35.3397C82.6489 35.2878 82.655 35.233 82.6672 35.1751C82.7193 34.9202 82.9327 34.7537 83.3083 34.6752L83.3221 34.6112C83.2016 34.5289 83.1098 34.4306 83.0467 34.3156C82.9843 34.1998 82.9533 34.0596 82.9533 33.895C82.9533 33.7944 82.9656 33.6843 82.9901 33.5643C83.0306 33.3692 83.1186 33.1921 83.2532 33.0324C83.3878 32.8732 83.5611 32.7471 83.7734 32.6545C83.9864 32.5612 84.2263 32.5143 84.4925 32.5143C84.7778 32.5143 85.0073 32.5722 85.1809 32.688C85.3255 32.5357 85.4319 32.3513 85.4992 32.1349L85.5741 32.0952L86.1571 32.2461C86.1027 32.4301 86.0255 32.5795 85.9245 32.6941C85.8235 32.8092 85.6851 32.8945 85.5099 32.9502L85.4931 33.0187C85.599 33.1357 85.6522 33.2877 85.6522 33.4744C85.6522 33.5761 85.6384 33.6904 85.6109 33.8173C85.5719 34.0043 85.4908 34.1739 85.3676 34.3263C85.2452 34.4786 85.0739 34.6013 84.8535 34.6935C84.6332 34.785 84.3685 34.8307 84.0595 34.8307L83.9295 34.8261C83.8507 34.8223 83.7937 34.82 83.7581 34.82C83.6793 34.82 83.6131 34.8413 83.5592 34.884C83.506 34.9259 83.4724 34.9796 83.4582 35.0455C83.454 35.0669 83.4521 35.0829 83.4521 35.0928C83.4521 35.1499 83.477 35.1957 83.5271 35.2299C83.5779 35.2635 83.6518 35.2825 83.7489 35.2863L84.416 35.3138C85.1033 35.3435 85.4472 35.6041 85.4472 36.0955C85.4472 36.1839 85.4368 36.2761 85.4166 36.3729C85.3745 36.5668 85.285 36.7421 85.1473 36.8986C85.0104 37.056 84.8096 37.1836 84.5445 37.2811C84.2802 37.3794 83.9513 37.429 83.5577 37.429ZM84.1895 34.2318C84.3548 34.2318 84.494 34.183 84.6072 34.0855C84.7212 33.9872 84.7977 33.8455 84.8367 33.6603C84.849 33.6066 84.8551 33.5563 84.8551 33.5094C84.8551 33.3856 84.8172 33.2892 84.7419 33.2199C84.6661 33.1509 84.5606 33.1163 84.4252 33.1163C84.2557 33.1163 84.1153 33.165 84.0044 33.2626C83.8943 33.3593 83.8193 33.4999 83.7795 33.6847C83.7673 33.7407 83.7612 33.7929 83.7612 33.8416C83.7612 33.9658 83.7979 34.0619 83.8713 34.1297C83.9448 34.1979 84.0507 34.2318 84.1895 34.2318ZM83.6281 36.8087C83.8178 36.8087 83.9792 36.7889 84.113 36.7493C84.2465 36.7104 84.3502 36.6594 84.4236 36.5954C84.4971 36.5314 84.5418 36.4613 84.5583 36.3851C84.5663 36.3523 84.5705 36.3195 84.5705 36.286C84.5705 36.2037 84.5372 36.1435 84.4711 36.1062C84.4045 36.0685 84.2951 36.0452 84.1421 36.0361L83.5347 36.0056C83.4774 36.0014 83.4372 35.9995 83.4139 35.9995C83.2609 35.9995 83.1354 36.0369 83.0375 36.1123C82.9396 36.1873 82.8906 36.2879 82.8906 36.414C82.8906 36.539 82.9556 36.6358 83.0865 36.7051C83.218 36.7741 83.3986 36.8087 83.6281 36.8087Z" fill="black"/>
<path d="M89.0127 32.1729C88.8574 32.1729 88.7316 32.1264 88.6348 32.0327C88.5376 31.9382 88.4894 31.8175 88.4894 31.67C88.4894 31.5237 88.5376 31.4041 88.6348 31.3104C88.7316 31.2159 88.8574 31.1687 89.0127 31.1687C89.1156 31.1687 89.2074 31.1908 89.2881 31.2342C89.3684 31.2769 89.4307 31.3359 89.4747 31.411C89.5195 31.4864 89.542 31.5725 89.542 31.67C89.542 31.7668 89.5195 31.8529 89.4747 31.9291C89.4307 32.0053 89.3684 32.0655 89.2881 32.1089C89.2074 32.1516 89.1156 32.1729 89.0127 32.1729ZM87.6648 35.9842L88.3931 32.5798H89.2514L88.5231 35.9842H87.6648Z" fill="black"/>
<path d="M94.4376 33.6069C94.3599 33.986 94.1534 34.2577 93.8179 34.4222C93.4833 34.5868 93.0744 34.6691 92.5909 34.6691C92.4196 34.6691 92.2604 34.6623 92.1136 34.6478C92.1227 34.8745 92.1828 35.044 92.2941 35.1568C92.405 35.2688 92.5622 35.3244 92.7653 35.3244C92.9527 35.3244 93.1084 35.2875 93.232 35.2132C93.3563 35.1392 93.4699 35.0257 93.5731 34.8733H93.6389L94.1897 35.2467C94.0845 35.4155 93.9667 35.5576 93.8363 35.6734C93.7066 35.7884 93.5418 35.8799 93.3421 35.9477C93.1432 36.0155 92.8992 36.0498 92.6108 36.0498C92.3476 36.0498 92.1128 35.9938 91.907 35.8822C91.702 35.7694 91.5406 35.6071 91.4236 35.3945C91.3073 35.1812 91.2491 34.9263 91.2491 34.6295C91.2491 34.4611 91.269 34.2828 91.3088 34.0946C91.3792 33.7654 91.5085 33.4827 91.6974 33.2458C91.886 33.008 92.1139 32.8267 92.3813 32.7017C92.6494 32.5768 92.9367 32.5143 93.2427 32.5143C93.5028 32.5143 93.7238 32.5539 93.9067 32.6332C94.0891 32.7124 94.2268 32.8206 94.3198 32.9578C94.4135 33.0949 94.4605 33.2469 94.4605 33.4134C94.4605 33.4835 94.4529 33.5483 94.4376 33.6069ZM93.1616 33.1787C93.0289 33.1787 92.9 33.2088 92.7745 33.2686C92.6498 33.3277 92.5374 33.4176 92.4364 33.5384C92.3354 33.6584 92.2578 33.8081 92.2038 33.9879C92.3629 34.0001 92.5136 34.0062 92.6567 34.0062C92.9371 34.0062 93.1604 33.9712 93.3268 33.9011C93.4928 33.831 93.5949 33.7075 93.6328 33.5308C93.6366 33.5064 93.6389 33.4866 93.6389 33.4713C93.6389 33.3852 93.5976 33.3151 93.515 33.261C93.4324 33.2062 93.3146 33.1787 93.1616 33.1787Z" fill="black"/>
<path d="M97.5048 36.0498C97.3005 36.0498 97.1093 36.0208 96.931 35.9629C96.7536 35.905 96.6013 35.8265 96.4751 35.7267C96.3497 35.6273 96.2571 35.5157 96.1967 35.3915L96.7612 34.9008H96.827C96.9096 35.0531 97.0198 35.1674 97.1575 35.2436C97.2959 35.3198 97.4562 35.3579 97.6379 35.3579C97.8283 35.3579 97.9745 35.3206 98.0754 35.2452C98.1764 35.1701 98.2269 35.0634 98.2269 34.9251C98.2269 34.847 98.1982 34.7804 98.1412 34.7255C98.085 34.6699 97.9905 34.623 97.8582 34.5853L97.4313 34.4664C97.2179 34.4047 97.0462 34.3057 96.9157 34.1693C96.7861 34.0333 96.7214 33.8565 96.7214 33.639C96.7214 33.5608 96.7306 33.4755 96.749 33.3829C96.8071 33.1086 96.959 32.8953 97.2049 32.7429C97.4504 32.5905 97.7771 32.5143 98.1841 32.5143C98.4686 32.5143 98.7092 32.5615 98.9062 32.656C99.1039 32.7497 99.2535 32.8724 99.3545 33.0248L98.8159 33.4972H98.7532C98.6817 33.3898 98.5914 33.3113 98.4824 33.2625C98.3742 33.213 98.2468 33.1879 98.0999 33.1879C97.9243 33.1879 97.7901 33.2123 97.6975 33.261C97.6046 33.309 97.5476 33.3829 97.5262 33.4835C97.522 33.509 97.5201 33.5277 97.5201 33.5399C97.5201 33.6123 97.5522 33.6751 97.6164 33.7289C97.6807 33.7818 97.7714 33.8233 97.8888 33.8538L98.2804 33.9559C98.8087 34.0923 99.073 34.3701 99.073 34.7895C99.073 34.8779 99.0626 34.9674 99.0424 35.0577C98.9678 35.3892 98.8087 35.6376 98.565 35.8029C98.321 35.9675 97.9676 36.0498 97.5048 36.0498Z" fill="black"/>
<mask id="mask2_2_1240" style="mask-type:luminance" maskUnits="userSpaceOnUse" x="0" y="8" width="3" height="3">
<path d="M0.53479 8.2854H2.29729V10.0406H0.53479V8.2854Z" fill="white"/>
</mask>
<g mask="url(#mask2_2_1240)">
<path d="M0.53479 8.2854H2.29729V10.0406H0.53479V8.2854Z" fill="#0369A1"/>
</g>
<mask id="mask3_2_1240" style="mask-type:luminance" maskUnits="userSpaceOnUse" x="2" y="4" width="5" height="5">
<path d="M2.99915 4.85658H6.34438V8.01605H2.99915V4.85658Z" fill="white"/>
</mask>
<g mask="url(#mask3_2_1240)">
<path d="M2.99915 4.85658H6.34438V8.01605H2.99915V4.85658Z" fill="#0369A1"/>
</g>
</g>
<defs>
<clipPath id="clip0_2_1240">
<rect width="133" height="41" fill="white"/>
</clipPath>
</defs>
</svg>
