<svg width="57" height="56" viewBox="0 0 57 56" fill="none" xmlns="http://www.w3.org/2000/svg">
<path d="M0.65625 28C0.65625 12.536 13.1923 0 28.6562 0C44.1202 0 56.6562 12.536 56.6562 28C56.6562 43.464 44.1202 56 28.6562 56C13.1923 56 0.65625 43.464 0.65625 28Z" fill="#E0F2FE"/>
<g clip-path="url(#clip0_1_359)">
<path d="M20.4062 22.5C21.4008 22.5 22.3546 22.1049 23.0579 21.4017C23.7612 20.6984 24.1562 19.7446 24.1562 18.75C24.1562 17.7554 23.7612 16.8016 23.0579 16.0983C22.3546 15.3951 21.4008 15 20.4062 15C19.4117 15 18.4579 15.3951 17.7546 16.0983C17.0513 16.8016 16.6562 17.7554 16.6562 18.75C16.6562 19.7446 17.0513 20.6984 17.7546 21.4017C18.4579 22.1049 19.4117 22.5 20.4062 22.5ZM37.6562 22.5C38.6508 22.5 39.6046 22.1049 40.3079 21.4017C41.0112 20.6984 41.4062 19.7446 41.4062 18.75C41.4062 17.7554 41.0112 16.8016 40.3079 16.0983C39.6046 15.3951 38.6508 15 37.6562 15C36.6617 15 35.7079 15.3951 35.0046 16.0983C34.3013 16.8016 33.9062 17.7554 33.9062 18.75C33.9062 19.7446 34.3013 20.6984 35.0046 21.4017C35.7079 22.1049 36.6617 22.5 37.6562 22.5ZM13.6562 29.0016C13.6562 29.55 14.1062 30 14.6547 30H24.6578C24.6672 30 24.6766 30 24.6906 30C23.4437 28.8984 22.6609 27.2906 22.6609 25.5C22.6609 25.1438 22.6938 24.7969 22.75 24.4547C22.1125 24.1594 21.4047 24 20.6594 24H18.6578C15.8969 24 13.6562 26.2406 13.6562 29.0016ZM28.6562 30C29.7812 30 30.8078 29.5875 31.5953 28.9078C31.7125 28.7344 31.8391 28.5656 31.9703 28.4062C32.0969 28.2516 32.2375 28.1203 32.3922 28.0172C32.875 27.2953 33.1562 26.4328 33.1562 25.5C33.1562 23.0156 31.1406 21 28.6562 21C26.1719 21 24.1562 23.0156 24.1562 25.5C24.1562 27.9844 26.1719 30 28.6562 30ZM31.7219 32.8219C31.2391 32.5453 30.8734 32.0625 30.7469 31.5H25.9047C22.4547 31.5 19.6562 34.2984 19.6562 37.7484C19.6562 38.4375 20.2141 39 20.9078 39H34.9938C34.8953 38.7563 34.8438 38.4891 34.8438 38.2313V38.0906C34.7828 38.0578 34.7172 38.0203 34.6562 37.9828L34.5344 38.0531C33.7469 38.5078 32.6359 38.4281 31.9703 37.5984C31.7594 37.3359 31.5672 37.0594 31.3891 36.7734L31.3844 36.7641L31.3797 36.7547L31.2672 36.5625L31.2625 36.5531L31.2578 36.5438C31.0984 36.2531 30.9578 35.9531 30.8359 35.6391C30.4516 34.6453 30.9391 33.6422 31.7266 33.1875L31.8531 33.1172C31.8531 33.0797 31.8531 33.0469 31.8531 33.0094C31.8531 32.9719 31.8531 32.9391 31.8531 32.9016L31.7266 32.8312L31.7219 32.8219ZM38.6547 24H36.6578C35.9125 24 35.2047 24.1641 34.5672 24.4547C34.6281 24.7922 34.6562 25.1438 34.6562 25.5C34.6562 26.3156 34.4922 27.0891 34.2016 27.7969C34.3187 27.8391 34.4312 27.8906 34.5344 27.9516L34.6562 28.0219C34.7172 27.9844 34.7781 27.9469 34.8438 27.9141V27.7734C34.8438 26.8641 35.4672 25.9406 36.5219 25.7766C36.8922 25.7203 37.2719 25.6875 37.6562 25.6875C38.0406 25.6875 38.4203 25.7156 38.7906 25.7766C39.8453 25.9406 40.4688 26.8641 40.4688 27.7734V27.9141C40.5297 27.9469 40.5953 27.9844 40.6562 28.0219L40.7781 27.9516C41.5656 27.4969 42.6766 27.5766 43.3422 28.4062C43.45 28.5375 43.5531 28.6781 43.6516 28.8141C43.5531 26.1375 41.3547 24 38.6547 24ZM42.9344 31.6828C43.2297 31.5141 43.3797 31.1625 43.2531 30.8391C43.1547 30.5812 43.0375 30.3328 42.9062 30.0938L42.7984 29.9062C42.6531 29.6672 42.4937 29.4422 42.3203 29.2266C42.1047 28.9594 41.725 28.9125 41.4297 29.0859L40.5813 29.5781C40.1641 29.2219 39.6859 28.9406 39.1562 28.7531V27.7687C39.1562 27.4266 38.9266 27.1219 38.5891 27.0703C38.2844 27.0234 37.975 27 37.6562 27C37.3375 27 37.0281 27.0234 36.7234 27.0703C36.3859 27.1219 36.1562 27.4266 36.1562 27.7687V28.7531C35.6313 28.9406 35.1484 29.2219 34.7313 29.5781L33.8781 29.0859C33.5828 28.9172 33.2031 28.9641 32.9875 29.2266C32.8141 29.4422 32.6547 29.6719 32.5094 29.9109L32.4016 30.0938C32.2703 30.3328 32.1531 30.5812 32.0547 30.8391C31.9328 31.1578 32.0781 31.5094 32.3734 31.6781L33.2266 32.1703C33.1797 32.4375 33.1516 32.7141 33.1516 32.9953C33.1516 33.2766 33.1797 33.5531 33.2266 33.8156L32.3734 34.3078C32.0781 34.4766 31.9281 34.8281 32.0547 35.1469C32.1531 35.4047 32.2703 35.6484 32.4016 35.8875L32.5141 36.0797C32.6547 36.3188 32.8141 36.5438 32.9875 36.7594C33.2031 37.0266 33.5828 37.0734 33.8781 36.9L34.7313 36.4219C35.1484 36.7781 35.6313 37.0594 36.1562 37.2469V38.2313C36.1562 38.5734 36.3859 38.8781 36.7234 38.9297C37.0281 38.9766 37.3375 39 37.6562 39C37.975 39 38.2844 38.9766 38.5891 38.9297C38.9266 38.8781 39.1562 38.5734 39.1562 38.2313V37.2469C39.6812 37.0594 40.1641 36.7781 40.5813 36.4219L41.4344 36.9141C41.7297 37.0828 42.1094 37.0359 42.325 36.7734C42.4984 36.5578 42.6578 36.3328 42.7984 36.0938L42.9109 35.8969C43.0422 35.6578 43.1594 35.4141 43.2578 35.1562C43.3797 34.8375 43.2344 34.4859 42.9391 34.3172L42.0859 33.825C42.1328 33.5578 42.1609 33.2812 42.1609 33.0047C42.1609 32.7281 42.1328 32.4469 42.0859 32.1797L42.9391 31.6875L42.9344 31.6828ZM35.7812 33C35.7812 32.5027 35.9788 32.0258 36.3304 31.6742C36.6821 31.3225 37.159 31.125 37.6562 31.125C38.1535 31.125 38.6304 31.3225 38.9821 31.6742C39.3337 32.0258 39.5312 32.5027 39.5312 33C39.5312 33.4973 39.3337 33.9742 38.9821 34.3258C38.6304 34.6775 38.1535 34.875 37.6562 34.875C37.159 34.875 36.6821 34.6775 36.3304 34.3258C35.9788 33.9742 35.7812 33.4973 35.7812 33Z" fill="#0369A1"/>
</g>
<defs>
<clipPath id="clip0_1_359">
<path d="M13.6562 15H43.6562V39H13.6562V15Z" fill="white"/>
</clipPath>
</defs>
</svg>
