<svg width="57" height="56" viewBox="0 0 57 56" fill="none" xmlns="http://www.w3.org/2000/svg">
<path d="M0.65625 28C0.65625 12.536 13.1923 0 28.6562 0C44.1202 0 56.6562 12.536 56.6562 28C56.6562 43.464 44.1202 56 28.6562 56C13.1923 56 0.65625 43.464 0.65625 28Z" fill="#E0F2FE"/>
<path d="M28.25 18.0732C27.6437 18.1863 26.9316 18.4301 25.8377 18.8045L25.2649 19.0006C22.2583 20.0298 20.755 20.5444 20.3775 21.0822C20.0083 21.6084 20.0002 23.1496 20 26.2093L28.25 23.4593V18.0732Z" fill="#0369A1"/>
<path d="M28.25 25.0404L20 27.7904V27.9912C20 33.6293 24.239 36.3653 26.8986 37.5271C27.4093 37.7502 27.7392 37.8943 28.25 37.9595V25.0404Z" fill="#0369A1"/>
<path d="M29.75 37.9595V25.0404L38 27.7904V27.9912C38 33.6293 33.761 36.3653 31.1014 37.5271C30.5907 37.7502 30.2608 37.8943 29.75 37.9595Z" fill="#0369A1"/>
<path d="M29.75 23.4593V18.0732C30.3563 18.1863 31.0684 18.4301 32.1623 18.8045L32.7351 19.0006C35.7417 20.0298 37.245 20.5444 37.6225 21.0822C37.9918 21.6084 37.9998 23.1496 38 26.2093L29.75 23.4593Z" fill="#0369A1"/>
</svg>
