<svg width="57" height="56" viewBox="0 0 57 56" fill="none" xmlns="http://www.w3.org/2000/svg">
<path d="M0.328125 28C0.328125 12.536 12.8642 0 28.3281 0C43.7921 0 56.3281 12.536 56.3281 28C56.3281 43.464 43.7921 56 28.3281 56C12.8642 56 0.328125 43.464 0.328125 28Z" fill="#E0F2FE"/>
<g clip-path="url(#clip0_1_365)">
<path d="M19.3281 27L20.6641 16.3125C20.7578 15.5625 21.3953 15 22.1547 15H30.0578C30.7609 15 31.3281 15.5672 31.3281 16.2703C31.3281 16.4203 31.3 16.575 31.2484 16.7156L29.0781 22.5H35.6078C36.5547 22.5 37.3281 23.2688 37.3281 24.2203C37.3281 24.5672 37.225 24.9047 37.0281 25.1906L28.0187 38.3625C27.7422 38.7656 27.2875 39.0047 26.8047 39.0047H26.6688C25.9328 39.0047 25.3328 38.4047 25.3328 37.6688C25.3328 37.5609 25.3469 37.4531 25.375 37.3453L27.5781 28.5H20.8281C19.9984 28.5 19.3281 27.8297 19.3281 27Z" fill="#0369A1"/>
</g>
<defs>
<clipPath id="clip0_1_365">
<path d="M19.3281 15H37.3281V39H19.3281V15Z" fill="white"/>
</clipPath>
</defs>
</svg>
