<svg width="57" height="56" viewBox="0 0 57 56" fill="none" xmlns="http://www.w3.org/2000/svg">
<path d="M0.328125 28C0.328125 12.536 12.8642 0 28.3281 0C43.7921 0 56.3281 12.536 56.3281 28C56.3281 43.464 43.7921 56 28.3281 56C12.8642 56 0.328125 43.464 0.328125 28Z" fill="#E0F2FE"/>
<g clip-path="url(#clip0_1_356)">
<path d="M35.8281 24.75C35.8281 26.9016 35.1297 28.8891 33.9531 30.5016L39.8875 36.4406C40.4734 37.0266 40.4734 37.9781 39.8875 38.5641C39.3016 39.15 38.35 39.15 37.7641 38.5641L31.8297 32.625C30.2172 33.8062 28.2297 34.5 26.0781 34.5C20.6922 34.5 16.3281 30.1359 16.3281 24.75C16.3281 19.3641 20.6922 15 26.0781 15C31.4641 15 35.8281 19.3641 35.8281 24.75ZM21.2031 25.125V28.125C21.2031 28.7484 21.7047 29.25 22.3281 29.25C22.9516 29.25 23.4531 28.7484 23.4531 28.125V25.125C23.4531 24.5016 22.9516 24 22.3281 24C21.7047 24 21.2031 24.5016 21.2031 25.125ZM24.9531 20.625V28.125C24.9531 28.7484 25.4547 29.25 26.0781 29.25C26.7016 29.25 27.2031 28.7484 27.2031 28.125V20.625C27.2031 20.0016 26.7016 19.5 26.0781 19.5C25.4547 19.5 24.9531 20.0016 24.9531 20.625ZM28.7031 23.625V28.125C28.7031 28.7484 29.2047 29.25 29.8281 29.25C30.4516 29.25 30.9531 28.7484 30.9531 28.125V23.625C30.9531 23.0016 30.4516 22.5 29.8281 22.5C29.2047 22.5 28.7031 23.0016 28.7031 23.625Z" fill="#0369A1"/>
</g>
<defs>
<clipPath id="clip0_1_356">
<path d="M16.3281 15H40.3281V39H16.3281V15Z" fill="white"/>
</clipPath>
</defs>
</svg>
