<svg width="56" height="56" viewBox="0 0 56 56" fill="none" xmlns="http://www.w3.org/2000/svg">
<path d="M0 28C0 12.536 12.536 0 28 0C43.464 0 56 12.536 56 28C56 43.464 43.464 56 28 56C12.536 56 0 43.464 0 28Z" fill="#E0F2FE"/>
<g clip-path="url(#clip0_1_353)">
<path d="M19 15C18.1703 15 17.5 15.6703 17.5 16.5V21H20.5V16.5C20.5 15.6703 19.8297 15 19 15ZM28 15C27.1703 15 26.5 15.6703 26.5 16.5V21H29.5V16.5C29.5 15.6703 28.8297 15 28 15ZM16 22.5C15.1703 22.5 14.5 23.1703 14.5 24C14.5 24.8297 15.1703 25.5 16 25.5V27C16 30.6281 18.5781 33.6562 22 34.35V37.5C22 38.3297 22.6703 39 23.5 39C24.3297 39 25 38.3297 25 37.5V34.35C25.5766 34.2328 26.1297 34.05 26.6453 33.8109C26.5469 33.3047 26.5 32.7844 26.5 32.25C26.5 28.4859 29.0219 25.3125 32.4672 24.3188C32.4906 24.2156 32.5 24.1078 32.5 24C32.5 23.1703 31.8297 22.5 31 22.5H16ZM34.75 39C36.5402 39 38.2571 38.2888 39.523 37.023C40.7888 35.7571 41.5 34.0402 41.5 32.25C41.5 30.4598 40.7888 28.7429 39.523 27.477C38.2571 26.2112 36.5402 25.5 34.75 25.5C32.9598 25.5 31.2429 26.2112 29.977 27.477C28.7112 28.7429 28 30.4598 28 32.25C28 34.0402 28.7112 35.7571 29.977 37.023C31.2429 38.2888 32.9598 39 34.75 39ZM36.9953 28.4531C37.1969 28.6266 37.2484 28.9172 37.1172 29.1516L35.7062 31.6875H37.375C37.6187 31.6875 37.8344 31.8422 37.9094 32.0719C37.9844 32.3016 37.9047 32.5547 37.7125 32.7L33.2125 36.075C33.0016 36.2344 32.7063 36.225 32.5047 36.0469C32.3031 35.8687 32.2516 35.5828 32.3828 35.3484L33.7938 32.8125H32.125C31.8813 32.8125 31.6656 32.6578 31.5906 32.4281C31.5156 32.1984 31.5953 31.9453 31.7875 31.8L36.2875 28.425C36.4984 28.2656 36.7937 28.275 36.9953 28.4531Z" fill="#0369A1"/>
</g>
<defs>
<clipPath id="clip0_1_353">
<path d="M14.5 15H41.5V39H14.5V15Z" fill="white"/>
</clipPath>
</defs>
</svg>
