<svg width="56" height="56" viewBox="0 0 56 56" fill="none" xmlns="http://www.w3.org/2000/svg">
<path d="M0 28C0 12.536 12.536 0 28 0C43.464 0 56 12.536 56 28C56 43.464 43.464 56 28 56C12.536 56 0 43.464 0 28Z" fill="#E0F2FE"/>
<g clip-path="url(#clip0_1_362)">
<path d="M17.5 16.5C15.8453 16.5 14.5 17.8453 14.5 19.5V21H41.5V19.5C41.5 17.8453 40.1547 16.5 38.5 16.5H17.5ZM41.5 25.5H14.5V34.5C14.5 36.1547 15.8453 37.5 17.5 37.5H38.5C40.1547 37.5 41.5 36.1547 41.5 34.5V25.5ZM19.75 31.5H22.75C23.1625 31.5 23.5 31.8375 23.5 32.25C23.5 32.6625 23.1625 33 22.75 33H19.75C19.3375 33 19 32.6625 19 32.25C19 31.8375 19.3375 31.5 19.75 31.5ZM25 32.25C25 31.8375 25.3375 31.5 25.75 31.5H31.75C32.1625 31.5 32.5 31.8375 32.5 32.25C32.5 32.6625 32.1625 33 31.75 33H25.75C25.3375 33 25 32.6625 25 32.25Z" fill="#0369A1"/>
</g>
<defs>
<clipPath id="clip0_1_362">
<path d="M14.5 15H41.5V39H14.5V15Z" fill="white"/>
</clipPath>
</defs>
</svg>
